<?xml version="1.0" standalone="no"?>
<!DOCTYPE svg PUBLIC "-//W3C//DTD SVG 20010904//EN"
 "http://www.w3.org/TR/2001/REC-SVG-20010904/DTD/svg10.dtd">
<svg version="1.0" xmlns="http://www.w3.org/2000/svg"
 width="1260.000000pt" height="1260.000000pt" viewBox="0 0 1260.000000 1260.000000"
 preserveAspectRatio="xMidYMid meet">
<metadata>
Created by potrace 1.14, written by Peter Selinger 2001-2017
</metadata>
<g transform="translate(0.000000,1260.000000) scale(0.100000,-0.100000)"
fill="#000000" stroke="none">
<path d="M2605 10162 c-3 -3 -5 -76 -5 -163 0 -156 0 -159 23 -164 12 -2 92
-18 177 -35 939 -185 1814 -655 2561 -1378 334 -322 642 -693 879 -1055 52
-80 98 -146 101 -146 3 -1 49 63 101 142 124 186 276 388 434 578 154 185 571
605 743 749 648 538 1315 882 2064 1065 100 25 230 52 289 62 l108 17 0 168 0
168 -22 -5 c-13 -2 -104 -21 -203 -41 -1572 -314 -2782 -1149 -3451 -2382
l-61 -113 -57 105 c-340 636 -847 1186 -1478 1602 -567 374 -1253 646 -1993
792 -195 39 -204 40 -210 34z"/>
<path d="M1640 7560 l0 -2089 72 -103 c958 -1375 2359 -2425 3595 -2693 193
-42 302 -56 496 -62 l187 -6 0 2145 0 2145 -57 91 c-261 414 -749 913 -1294
1322 -737 552 -1575 964 -2472 1214 -163 46 -495 126 -520 126 -4 0 -7 -940
-7 -2090z"/>
<path d="M10995 9643 c-673 -152 -1183 -327 -1740 -597 -710 -344 -1341 -784
-1864 -1299 -295 -291 -491 -525 -646 -772 l-55 -88 0 -2139 0 -2138 133 0
c805 0 1836 461 2760 1235 530 443 1051 1018 1425 1572 l42 62 0 2085 c0 1980
-1 2086 -17 2085 -10 -1 -27 -3 -38 -6z"/>
</g>
</svg>
